<svg width="100%" viewBox="0 0 114.124 55.982" xml:space="preserve" xmlns="http://www.w3.org/2000/svg">
  <defs>
    <path id="a" d="M167.41 425.032h525.879v221.509H167.41z" />
  </defs>
  <g style="font-size:40px;line-height:1.25;letter-spacing:-8.14878px;white-space:pre;shape-inside:url(#a)">
    <path
      d="M169.926 430.992h22.548l-2.011 5.684h-13.017v5.43h10.892l-2.063 5.683h-8.83v12.363h-7.519zm33.437 24.117h-11.758l-1.855 5.313h-7.559l10.8-29.16h8.966l10.8 29.16H205.2zm-9.883-5.41h7.988l-3.984-11.601zm29.117-18.965c-4.857 0-8.704 1.361-11.543 4.082-2.25 2.148-3.608 4.91-4.074 8.285l4.98 13.415c.138.139.278.276.417.41 2.839 2.708 5.363 4.062 10.22 4.062 1.628 0 3.19-.182 4.688-.547a19.206 19.206 0 0 0 4.316-1.62v-6.036c-1.393.95-2.767 1.647-4.121 2.09a13.67 13.67 0 0 1-4.278.664c-2.682 0-4.791-.86-6.328-2.578-1.536-1.719-2.304-4.082-2.304-7.09 0-3.02.768-5.39 2.304-7.11 1.537-1.718 3.646-2.578 6.328-2.578 1.498 0 2.924.222 4.278.665 1.354.442 2.728 1.139 4.121 2.09v-6.036a19.205 19.205 0 0 0-4.316-1.62 19.748 19.748 0 0 0-4.688-.548z"
      style="font-weight:700;font-family:'Noto Music';-inkscape-font-specification:'Noto Music Bold'" aria-label="FAC"
      transform="translate(-314.434 -797.036) scale(1.85041)" fill="currentColor" />
  </g>
</svg>
